<svg xmlns="http://www.w3.org/2000/svg" viewBox="0 0 160 160" width="320" height="320">
  <defs>
    <linearGradient id="g1" x1="0" x2="1">
      <stop offset="0%" stop-color="#7b61ff"/>
      <stop offset="50%" stop-color="#4ec5a3"/>
      <stop offset="100%" stop-color="#ffd166"/>
    </linearGradient>
    <filter id="shadow" x="-20%" y="-20%" width="140%" height="140%">
      <feDropShadow dx="0" dy="4" stdDeviation="6" flood-opacity="0.15"/>
    </filter>
  </defs>

  <!-- background circle -->
  <circle cx="80" cy="80" r="72" fill="url(#g1)" opacity="0.12" />

  <!-- document -->
  <g transform="translate(28,28)" filter="url(#shadow)">
    <rect x="0" y="0" width="64" height="88" rx="6" fill="#ffffff" />
    <rect x="6" y="10" width="52" height="8" rx="2" fill="#f4f4f6" />
    <rect x="6" y="26" width="44" height="6" rx="2" fill="#f4f4f6" />
    <rect x="6" y="38" width="52" height="6" rx="2" fill="#f4f4f6" />
    <rect x="6" y="50" width="36" height="6" rx="2" fill="#f4f4f6" />
    <path d="M44 0 L64 20 L44 20 Z" fill="#f8fafc" opacity="0.9" />
  </g>

  <!-- shield / badge overlapping -->
  <g transform="translate(82,56)">
    <path d="M28 0 L48 12 V28 C48 42 20 54 28 60 C20 54 -8 42 -8 28 V12 Z" fill="#ffb4a2" transform="translate(-20,0) scale(0.9)"/>
    <path d="M28 8 C34 8 40 12 40 18 C40 30 22 38 28 42 C34 38 16 30 16 18 C16 12 22 8 28 8 Z" fill="#ffffff" opacity="0.9"/>
    <circle cx="28" cy="18" r="3" fill="#7b61ff"/>
  </g>

  <!-- sparkles -->
  <g fill="#fff1" transform="translate(18,8)">
    <polygon points="4,0 5.5,3 8,4 5.5,5 4,8 2.5,5 0,4 2.5,3" fill="#ffffff" opacity="0.9"/>
  </g>
  <g fill="#fff1" transform="translate(126,26)">
    <polygon points="4,0 5.5,3 8,4 5.5,5 4,8 2.5,5 0,4 2.5,3" fill="#ffffff" opacity="0.7"/>
  </g>

</svg>